<svg
  xmlns="http://www.w3.org/2000/svg"
  viewBox="0 0 16 16"
  shape-rendering="crispEdges"
>
<path
    fill="#c6a271"
    d="M11 1h1v1H11zM12 3h1v1H12zM10 4h1v1H10zM8 5h1v1H8zM10 5h1v1H10zM6 6h2v1H6zM9 6h1v1H9zM6 7h1v1H6zM8 7h1v1H8zM4 8h2v1H4zM9 8h1v1H9zM5 9h1v1H5zM8 9h1v1H8zM3 10h2v1H3zM6 10h1v1H6zM4 11h1v1H4zM6 11h1v1H6zM3 12h3v1H3z"
  />
<path
    fill="#b18953"
    d="M12 1h1v1H12zM13 3h1v1H13zM5 4h2v1H5zM11 4h2v1H11zM4 5h1v1H4zM9 5h1v1H9zM4 6h1v1H4zM8 6h1v1H8zM10 6h1v1H10zM5 7h1v1H5zM7 7h1v1H7zM9 7h1v1H9zM6 8h1v1H6zM7 10h1v1H7zM5 11h1v1H5zM3 13h2v1H3z"
  />
<path
    fill="#d6c5ad"
    d="M11 2h2v1H11zM10 3h2v1H10zM5 5h2v1H5zM5 6h1v1H5zM7 8h2v1H7zM6 9h2v1H6z"
  />
<path
    fill="#986d4e"
    d="M13 2h1v1H13zM14 3h1v1H14zM8 4h2v1H8zM13 4h2v1H13zM7 5h1v1H7zM11 5h2v1H11zM4 7h1v1H4zM10 7h1v1H10zM3 8h1v1H3zM10 8h1v1H10zM3 9h2v1H3zM9 9h1v1H9zM2 10h1v1H2zM5 10h1v1H5zM8 10h2v1H8zM2 11h1v1H2zM7 11h2v1H7zM2 12h1v1H2zM6 12h2v1H6zM5 13h1v1H5z"
  />
<path
    fill="#6b442b"
    d="M13 5h2v1H13zM11 6h1v1H11zM11 7h1v1H11zM11 8h1v1H11zM10 9h1v1H10zM10 10h1v1H10zM9 11h1v1H9zM8 12h1v1H8zM2 13h1v1H2zM6 13h2v1H6zM3 14h3v1H3z"
  />
<path fill="#000" d="M3 11h1v1H3z" />
</svg>
