<svg xmlns="http://www.w3.org/2000/svg" viewBox="0 0 16 16">
  <path
    fill="none"
    stroke="#24a9e0"
    stroke-linejoin="round"
    stroke-width=".64"
    d="M1.8 1.15h12.55v9.45H1.8z"
  />
  <path
    fill="#24a9e0"
    d="M2.4 14.8c-.17-.09-.18-.12-.19-.66v-.48l.12-.68c.06-.38.13-.7.14-.74s.05-.08.08-.1l.07-.07h1.43l1.43-.01.01-.15c.03-.23.11-.53.2-.76l.1-.23h4.57l.08.2c.1.22.19.55.21.78l.02.16h1.4c1.37 0 1.4 0 1.48.05q.09.05.11.12a9 9 0 0 1 .25 1.85c0 .57 0 .62-.13.7-.07.05-.21.05-5.68.05-5.32 0-5.62 0-5.7-.03m10.87-.73v-.13H2.87l-.02.1v.12c.02.03.8.04 5.22.04h5.2Zm-.1-1.07-.06-.29H3.02l-.04.24-.05.3-.02.05h10.3Zm-3.15-.99c0-.1-.08-.4-.14-.56l-.18-.33-.1-.2H6.55l-.07.13a2 2 0 0 0-.35.89l-.02.12h1.95c1.95 0 1.95 0 1.95-.05"
  />
  <path
    fill="none"
    stroke="#24a9e0"
    stroke-linejoin="round"
    stroke-width=".64"
    d="M2.93 2.34h10.28v7.1H2.93z"
  />

  <rect
    x="3.964"
    y="3.276"
    width="6.006"
    height="0.95"
    rx="0.054"
    ry="0.054"
    fill="#015189"
  />
  <rect
    x="10.588"
    y="3.276"
    width="1.591"
    height="0.95"
    rx="0.054"
    ry="0.054"
    fill="#005ba7"
  />

  <rect
    x="3.964"
    y="4.7"
    width="1.591"
    height="0.95"
    rx="0.054"
    ry="0.054"
    fill="#005ba7"
  />
  <rect
    x="6.172"
    y="4.7"
    width="1.591"
    height="0.95"
    rx="0.054"
    ry="0.054"
    fill="#2273b9"
  />
  <rect
    x="8.38"
    y="4.7"
    width="3.798"
    height="0.95"
    rx="0.054"
    ry="0.054"
    fill="#1899d5"
  />

  <rect
    x="3.964"
    y="6.125"
    width="3.798"
    height="0.95"
    rx="0.054"
    ry="0.054"
    fill="#24a9e0"
  />
  <rect
    x="8.38"
    y="6.125"
    width="1.591"
    height="0.95"
    rx="0.054"
    ry="0.054"
    fill="#5facde"
  />
  <rect
    x="10.588"
    y="6.125"
    width="1.591"
    height="0.95"
    rx="0.054"
    ry="0.054"
    fill="#5facde"
  />

  <rect
    x="3.964"
    y="7.549"
    width="1.591"
    height="0.95"
    rx="0.054"
    ry="0.054"
    fill="#61b6e5"
  />
  <rect
    x="6.172"
    y="7.549"
    width="3.798"
    height="0.95"
    rx="0.054"
    ry="0.054"
    fill="#8ec6e8"
  />
  <rect
    x="10.588"
    y="7.549"
    width="1.591"
    height="0.95"
    rx="0.054"
    ry="0.054"
    fill="#8ec6e8"
  />
</svg>
